# AST/ASF file generated using VICON BodyLanguage
# -----------------------------------------------
:version 1.10
:name VICON
:units
  mass 1.0
  length 0.45
  angle deg
:documentation
   .ast/.asf automatically generated from VICON data using
   VICON BodyBuilder and BodyLanguage model FoxedUp or BRILLIANT.MOD
:root
   order TX TY TZ RX RY RZ
   axis XYZ
   position 0 0 0  
   orientation 0 0 0 
:bonedata
  begin
     id 1 
     name lhipjoint
     direction 0.621036 -0.695554 0.361275 
     length 2.46325 
     axis 0 0 0  XYZ
  end
  begin
     id 2 
     name lfemur
     direction 0.34202 -0.939693 0  
     length 6.54784  
     axis 0 0 20  XYZ
    dof rx ry rz
    limits (-160.0 20.0)
           (-70.0 70.0)
           (-60.0 70.0)
  end
  begin
     id 3 
     name ltibia
     direction 0.34202 -0.939693 0   
     length 7.84737   
     axis 0 0 20   XYZ
    dof rx
    limits (-10.0 170.0)
  end
  begin
     id 4 
     name lfoot
     direction 0.0790693 -0.217241 0.97291   
     length 2.59747   
     axis -90 7.62852e-016 20   XYZ
    dof rx rz
    limits (-45.0 90.0)
           (-70.0 20.0)
  end
  begin
     id 5 
     name ltoes
     direction 1.53572e-011 -4.21898e-011 1   
     length 1.29919   
     axis -90 7.62852e-016 20   XYZ
    dof rx
    limits (-90.0 20.0)
  end
  begin
     id 6 
     name rhipjoint
     direction -0.602353 -0.708375 0.367935   
     length 2.41867  
     axis 0 0 0  XYZ 
  end
  begin
     id 7 
     name rfemur
     direction -0.34202 -0.939693 0   
     length 6.92065   
     axis 0 0 -20   XYZ
    dof rx ry rz
    limits (-160.0 20.0)
           (-70.0 70.0)
           (-70.0 60.0)
  end
  begin
     id 8 
     name rtibia
     direction -0.34202 -0.939693 0   
     length 7.88883   
     axis 0 0 -20   XYZ
    dof rx
    limits (-10.0 170.0)
 end
 begin
     id 9 
     name rfoot
     direction -0.0768692 -0.211196 0.974416   
     length 2.43714  
     axis -90 -7.62852e-016 -20   XYZ
    dof rx rz
    limits (-45.0 90.0)
           (-20.0 70.0)
  end
  begin
     id 10 
     name rtoes
     direction -1.53575e-011 -4.21933e-011 1   
     length 1.22113   
     axis -90 -7.62852e-016 -20   XYZ
    dof rx
    limits (-90.0 20.0)
  end
  begin
     id 11 
     name lowerback
     direction 0.0197937 0.98943 -0.143655   
     length 2.16931   
     axis 0 0 0   XYZ
    dof rx ry rz
    limits (-20.0 45.0)
           (-30.0 30.0)
           (-30.0 30.0)
  end
  begin
     id 12 
     name upperback
     direction -0.00183968 0.999975 0.00684288   
     length 2.17221   
     axis 0 0 0   XYZ
    dof rx ry rz
    limits (-20.0 45.0)
           (-30.0 30.0)
           (-30.0 30.0)
  end
  begin
     id 13 
     name thorax
     direction -0.00950244 0.997208 0.0740685   
     length 2.22549   
     axis 0 0 0   XYZ
    dof rx ry rz
    limits (-20.0 45.0)
           (-30.0 30.0)
           (-30.0 30.0)
  end
  begin
     id 14 
     name lowerneck
     direction 0.0218238 0.996215 0.0841425   
     length 1.77269   
     axis 0 0 0   XYZ
    dof rx ry rz
    limits (-20.0 45.0)
           (-30.0 30.0)
           (-30.0 30.0)
  end
  begin
     id 15 
     name upperneck
     direction -0.00430652 0.994214 -0.107332   
     length 1.76534   
     axis 0 0 0   XYZ
    dof rx ry rz
    limits (-20.0 45.0)
           (-30.0 30.0)
           (-30.0 30.0)
  end
  begin
     id 16
     name head
     direction -0.00328946 0.998959 -0.0454998  
     length 1.82634  
     axis 0 0 0   XYZ
    dof rx ry rz
    limits (-20.0 45.0)
           (-30.0 30.0)
           (-30.0 30.0)
  end
  begin
     id 17 
     name lclavicle
     direction 0.970962 0.239191 0.00450212  
     length 3.84872  
     axis 0 0 0   XYZ
    dof ry rz
    limits (-20.0 10.0)
           (0.0 20.0)
  end
  begin
     id 18 
     name lhumerus
     direction 1 -4.48966e-011 5.74696e-028   
     length 5.22771   
     axis 180 -30 -90   XYZ
    dof rx ry rz
    limits (-60.0 90.0)
           (-90.0 90.0)
           (-90.0 90.0)
  end
  begin
     id 19
     name lradius
     direction 1 -4.4896e-011 4.25109e-027   
     length 3.45251   
     axis 180 -30 -90   XYZ
    dof rx
    limits (-10.0 170.0)
  end
  begin
     id 20
     name lwrist
     direction 1 -4.48971e-011 1.15382e-027   
     length 1.72626   
     axis -5.52449e-016 90 90   XYZ
    dof ry
    limits (-180.0 0.0)
 end
  begin
     id 21 
     name lhand
     direction 1 -4.49034e-011 2.30765e-027   
     length 0.552119   
     axis -1.47248e-015 90 90   XYZ
    dof rx rz
    limits (-90.0 90.0)
           (-45.0 45.0)
  end
  begin
     id 22 
     name lfingers
     direction 1 -4.48951e-011 4.61529e-027   
     length 0.445133   
     axis -2.94495e-015 90 90   XYZ
    dof rx
    limits (0.0 90.0)
  end
  begin
     id 23
     name lthumb
     direction 0.707107 -6.34991e-011 0.707107   
     length 0.639124   
     axis -90 45 2.85299e-015   XYZ
    dof rx rz
    limits (-45.0 45.0)
           (-45.0 45.0)
  end
  begin
     id 24 
     name rclavicle
     direction -0.97424 0.222511 -0.0366699   
     length 3.73439  
     axis 0 0 0   XYZ 
    dof ry rz
    limits (-10.0 20.0)
           (-20.0 0.0)
  end
  begin
     id 25 
     name rhumerus
     direction -1 -4.48956e-011 -4.97258e-028  
     length 5.2398   
     axis 180 30 90   XYZ
    dof rx ry rz
    limits (-90.0 60.0)
           (-90.0 90.0)
           (-90.0 90.0)
  end
  begin
     id 26 
     name rradius
     direction -1 -4.4897e-011 -1.72611e-027   
     length 3.48042   
     axis 180 30 90   XYZ
    dof rx
    limits (-10.0 170.0)
  end
  begin
     id 27 
     name rwrist
     direction -1 -4.48976e-011 1.15382e-027   
     length 1.74021   
     axis -5.52449e-016 -90 -90   XYZ
    dof ry
    limits (-180.0 0.0)
  end
  begin
     id 28
     name rhand
     direction -1 -4.48963e-011 2.30765e-027   
     length 0.618713   
     axis -1.47248e-015 -90 -90   XYZ
    dof rx rz
    limits (-90.0 90.0)
           (-45.0 45.0)
  end
  begin
     id 29
     name rfingers
     direction -1 -4.4888e-011 4.61529e-027   
     length 0.498823   
     axis -2.94495e-015 -90 -90   XYZ
    dof rx
    limits (0.0 90.0)
  end
  begin
     id 30
     name rthumb
     direction -0.707107 -6.34968e-011 0.707107   
     length 0.716213   
     axis -90 -45 -2.85299e-015   XYZ
    dof rx rz
    limits (-45.0 45.0)
           (-45.0 45.0)
  end
:hierarchy
  begin
    root lhipjoint rhipjoint lowerback
    lhipjoint lfemur
    lfemur ltibia
    ltibia lfoot
    lfoot ltoes
    rhipjoint rfemur
    rfemur rtibia
    rtibia rfoot
    rfoot rtoes
    lowerback upperback
    upperback thorax
    thorax lowerneck lclavicle rclavicle
    lowerneck upperneck
    upperneck head
    lclavicle lhumerus
    lhumerus lradius
    lradius lwrist
    lwrist lhand lthumb
    lhand lfingers
    rclavicle rhumerus
    rhumerus rradius
    rradius rwrist
    rwrist rhand rthumb
    rhand rfingers
  end

#!OML:ASF G:\JayActor3\Patient Classification 1\Patient 1\Session 5\male.ASF
:FULLY-SPECIFIED
:DEGREES
38
root 46.5248 16.4751 -4.51427 -135.081 88.6248 -179.008
lowerback 14.844 -1.49114 2.31862
upperback 3.79337 -1.41376 0.470979
thorax -4.34604 -0.638665 -0.562766
lowerneck 4.05815 -0.272028 2.10858
upperneck -22.3193 0.627252 1.22113
head -7.51252 0.262732 -0.0367496
rclavicle 3.47873e-014 2.37548e-014
rhumerus -23.083 7.63751 -89.2132
rradius 42.3173
rwrist -7.40674
rhand -21.3931 -7.27941
rfingers 7.12502
rthumb 4.99478 -37.2005
lclavicle 3.47873e-014 2.37548e-014
lhumerus -25.4595 -9.7459 87.3318
lradius 41.5242
lwrist 24.803
lhand -21.0601 8.93545
lfingers 7.12502
lthumb 5.31631 38.8488
rfemur -68.6709 3.98383 13.2456
rtibia 37.0563
rfoot -12.7705 -16.5354
rtoes 9.28382
lfemur -58.6717 3.46058 -24.3861
ltibia 17.8957
lfoot -1.48489 1.60476
ltoes -8.45524
39
root 46.5239 16.4714 -4.51573 -136.486 88.5662 -180.567
lowerback 14.6408 -1.50598 2.33877
upperback 3.73647 -1.44039 0.470218
thorax -4.29719 -0.653887 -0.573296
lowerneck 4.04112 -0.269433 2.11183
upperneck -22.2366 0.626039 1.22158
head -7.48213 0.261213 -0.0367256
rclavicle -1.61016e-014 2.06736e-014
rhumerus -23.1964 7.5144 -89.2293
rradius 42.3041
rwrist -7.42437
rhand -21.3992 -7.26014
rfingers 7.12502
rthumb 4.98891 -37.1814
lclavicle -1.61016e-014 2.06736e-014
lhumerus -25.5388 -9.73334 87.3527
lradius 41.4953
lwrist 24.8879
lhand -21.0319 8.94176
lfingers 7.12502
lthumb 5.34351 38.8544
rfemur -68.8661 3.90636 13.225
rtibia 37.1151
rfoot -12.7923 -16.5493
rtoes 9.30115
lfemur -58.8529 3.3989 -24.4188
ltibia 17.8906
lfoot -1.44881 1.56804
ltoes -8.45957
40
root 46.5232 16.468 -4.51753 -137.562 88.4916 -181.788
lowerback 14.4424 -1.5258 2.37693
upperback 3.67821 -1.47054 0.473325
thorax -4.25277 -0.670964 -0.589302
lowerneck 4.02376 -0.267135 2.11495
upperneck -22.154 0.624782 1.22379
head -7.45176 0.259538 -0.0361038
rclavicle -1.33186e-014 3.27995e-015
rhumerus -23.3109 7.39207 -89.2441
rradius 42.2765
rwrist -7.43362
rhand -21.3853 -7.2592
rfingers 7.12502
rthumb 5.00235 -37.1802
lclavicle -1.33186e-014 3.27995e-015
lhumerus -25.6202 -9.71941 87.3779
lradius 41.4597
lwrist 24.9651
lhand -21.0035 8.94342
lfingers 7.12502
lthumb 5.37101 38.8554
rfemur -69.0468 3.81989 13.2232
rtibia 37.1718
rfoot -12.8148 -16.5587
rtoes 9.31962
lfemur -59.0222 3.33606 -24.443
ltibia 17.88
lfoot -1.4113 1.52322
ltoes -8.45412
41
root 46.5229 16.4646 -4.51952 -138.668 88.4156 -183.037
lowerback 14.2407 -1.54645 2.41495
upperback 3.61708 -1.50216 0.475878
thorax -4.20946 -0.688847 -0.605715
lowerneck 4.0106 -0.264862 2.1153
upperneck -22.0744 0.624518 1.2313
head -7.42316 0.258075 -0.0333694
rclavicle -3.57812e-015 -1.35174e-014
rhumerus -23.4286 7.26747 -89.2573
rradius 42.237
rwrist -7.43418
rhand -21.3601 -7.27521
rfingers 7.12502
rthumb 5.0267 -37.1956
lclavicle -3.57812e-015 -1.35174e-014
lhumerus -25.7043 -9.71008 87.4074
lradius 41.4174
lwrist 25.0349
lhand -20.9814 8.93672
lfingers 7.12502
lthumb 5.39233 38.8481
rfemur -69.2227 3.73028 13.2181
rtibia 37.227
rfoot -12.8372 -16.5685
rtoes 9.33624
lfemur -59.1838 3.27592 -24.4772
ltibia 17.8611
lfoot -1.371 1.46866
ltoes -8.44801
42
root 46.5232 16.4618 -4.52181 -139.868 88.3439 -184.365
lowerback 14.0516 -1.56729 2.44875
upperback 3.55672 -1.53437 0.475025
thorax -4.1721 -0.706954 -0.623096
lowerneck 4.01041 -0.264118 2.12004
upperneck -22.008 0.622422 1.23382
head -7.40126 0.255704 -0.0329253
rclavicle 3.08116e-014 2.11706e-014
rhumerus -23.5474 7.13818 -89.2705
rradius 42.1838
rwrist -7.42237
rhand -21.3386 -7.28953
rfingers 7.12502
rthumb 5.04739 -37.2094
lclavicle 3.08116e-014 2.11706e-014
lhumerus -25.7892 -9.70206 87.438
lradius 41.3721
lwrist 25.0982
lhand -20.9483 8.93631
lfingers 7.12502
lthumb 5.42429 38.8469
rfemur -69.3778 3.64022 13.2073
rtibia 37.2795
rfoot -12.8627 -16.5748
rtoes 9.35659
lfemur -59.3204 3.21748 -24.5203
ltibia 17.8335
lfoot -1.33077 1.41181
ltoes -8.43732
43
root 46.5241 16.4592 -4.52391 -140.958 88.276 -185.569
lowerback 13.8718 -1.58475 2.47858
upperback 3.49758 -1.56242 0.472806
thorax -4.13821 -0.72295 -0.640342
lowerneck 4.02687 -0.265985 2.12082
upperneck -21.9581 0.617699 1.23841
head -7.3878 0.252077 -0.0310049
rclavicle -1.70955e-014 -2.74323e-014
rhumerus -23.6677 7.00197 -89.2816
rradius 42.1177
rwrist -7.40162
rhand -21.329 -7.2925
rfingers 7.12502
rthumb 5.05666 -37.2122
lclavicle -1.70955e-014 -2.74323e-014
lhumerus -25.8744 -9.70374 87.4706
lradius 41.3231
lwrist 25.1582
lhand -20.9106 8.9436
lfingers 7.12502
lthumb 5.46067 38.8532
rfemur -69.5147 3.56157 13.1899
rtibia 37.3295
rfoot -12.8925 -16.5878
rtoes 9.37647
lfemur -59.434 3.16402 -24.5626
ltibia 17.7967
lfoot -1.28797 1.35585
ltoes -8.41917
44
root 46.5255 16.457 -4.52587 -142.115 88.2159 -186.828
lowerback 13.6998 -1.60063 2.49685
upperback 3.44 -1.58989 0.467123
thorax -4.10661 -0.738528 -0.654758
lowerneck 4.05041 -0.269245 2.12593
upperneck -21.918 0.611957 1.24197
head -7.37884 0.247667 -0.0301112
rclavicle -2.8625e-014 -2.24627e-014
rhumerus -23.7856 6.86568 -89.2939
rradius 42.0368
rwrist -7.36897
rhand -21.3273 -7.28387
rfingers 7.12502
rthumb 5.05831 -37.2035
lclavicle -2.8625e-014 -2.24627e-014
lhumerus -25.9587 -9.7103 87.5012
lradius 41.271
lwrist 25.2166
lhand -20.8749 8.9529
lfingers 7.12502
lthumb 5.49516 38.8617
rfemur -69.6364 3.49095 13.1613
rtibia 37.3768
rfoot -12.9273 -16.6038
rtoes 9.4063
lfemur -59.5272 3.11116 -24.6069
ltibia 17.7535
lfoot -1.24641 1.30673
ltoes -8.39196
45
root 46.5273 16.4548 -4.52751 -143.217 88.159 -188.027
lowerback 13.5289 -1.61549 2.50807
upperback 3.38349 -1.61703 0.459683
thorax -4.0742 -0.753853 -0.667193
lowerneck 4.06481 -0.271712 2.122
upperneck -21.8716 0.608227 1.25665
head -7.36622 0.244127 -0.0241974
rclavicle 1.59028e-015 -2.05742e-014
rhumerus -23.9001 6.73669 -89.3088
rradius 41.9421
rwrist -7.33153
rhand -21.3411 -7.25727
rfingers 7.12502
rthumb 5.04501 -37.1772
lclavicle 1.59028e-015 -2.05742e-014
lhumerus -26.0392 -9.72 87.5279
lradius 41.2144
lwrist 25.2739
lhand -20.8358 8.96705
lfingers 7.12502
lthumb 5.53289 38.8748
rfemur -69.7504 3.42874 13.1262
rtibia 37.4231
rfoot -12.9637 -16.6243
rtoes 9.4333
lfemur -59.6104 3.06031 -24.6501
ltibia 17.7066
lfoot -1.20398 1.26163
ltoes -8.35693
46
root 46.5294 16.4524 -4.52863 -144.251 88.1042 -189.161
lowerback 13.3472 -1.62758 2.51114
upperback 3.32597 -1.64204 0.453705
thorax -4.03659 -0.768098 -0.674198
lowerneck 4.07679 -0.276827 2.11505
upperneck -21.8228 0.600308 1.27195
head -7.35238 0.238745 -0.0172475
rclavicle -1.88845e-014 -2.45499e-014
rhumerus -24.0139 6.61169 -89.3206
rradius 41.8393
rwrist -7.28596
rhand -21.3544 -7.23516
rfingers 7.12502
rthumb 5.03216 -37.1554
lclavicle -1.88845e-014 -2.45499e-014
lhumerus -26.1179 -9.73347 87.5575
lradius 41.1544
lwrist 25.3307
lhand -20.8024 8.98098
lfingers 7.12502
lthumb 5.56511 38.8879
rfemur -69.8619 3.37655 13.0823
rtibia 37.4561
rfoot -12.9972 -16.6556
rtoes 9.46705
lfemur -59.6957 3.01173 -24.6926
ltibia 17.6586
lfoot -1.16274 1.21954
ltoes -8.32482
